<?xml version="1.0" encoding="utf-8"?>
<!-- Generator: Adobe Illustrator 23.0.3, SVG Export Plug-In . SVG Version: 6.00 Build 0)  -->
<svg version="1.1" xmlns="http://www.w3.org/2000/svg" xmlns:xlink="http://www.w3.org/1999/xlink" x="0px" y="0px"
	 viewBox="0 0 64 64" style="enable-background:new 0 0 64 64;" xml:space="preserve">
<style type="text/css">
	.st0{fill:#FFFFFF;}
	.st1{fill:url(#SVGID_1_);}
	.st2{fill:url(#SVGID_2_);}
</style>
<g id="Layer_2">
	<circle class="st0" cx="32" cy="32" r="32"/>
</g>
<g id="Слой_1">
	<linearGradient id="SVGID_1_" gradientUnits="userSpaceOnUse" x1="32" y1="18.9091" x2="32" y2="24.6364">
		<stop  offset="5.618000e-03" style="stop-color:#EC7D4C"/>
		<stop  offset="0.8017" style="stop-color:#F6B744"/>
		<stop  offset="1" style="stop-color:#F8C642"/>
	</linearGradient>
	<path class="st1" d="M26.3,24.6c0-3.2,2.6-5.7,5.7-5.7s5.7,2.6,5.7,5.7"/>
	<linearGradient id="SVGID_2_" gradientUnits="userSpaceOnUse" x1="32" y1="10.7273" x2="32" y2="53.2727">
		<stop  offset="5.618000e-03" style="stop-color:#EC7D4C"/>
		<stop  offset="0.8017" style="stop-color:#F6B744"/>
		<stop  offset="1" style="stop-color:#F8C642"/>
	</linearGradient>
	<path class="st2" d="M50,33.6v-2.5c0-1.4-1.1-2.5-2.5-2.5h-2.5v-2.5c0-1.4-1.1-2.5-2.5-2.5H41c-0.1-1.7-0.8-3.2-1.7-4.5l3.3-2.6
		c0.5,0.3,1.1,0.5,1.7,0.5c1.8,0,3.3-1.5,3.3-3.3s-1.5-3.3-3.3-3.3c-1.8,0-3.3,1.5-3.3,3.3c0,0.6,0.2,1.1,0.4,1.6l-3.2,2.6
		c-1.6-1.5-3.8-2.5-6.2-2.5s-4.6,1-6.2,2.5l-3.2-2.6c0.3-0.5,0.4-1,0.4-1.6c0-1.8-1.5-3.3-3.3-3.3s-3.3,1.5-3.3,3.3s1.5,3.3,3.3,3.3
		c0.6,0,1.2-0.2,1.7-0.5l3.3,2.6c-0.9,1.3-1.5,2.8-1.7,4.5h-1.7c-1.4,0-2.5,1.1-2.5,2.5v2.5h-2.5c-1.4,0-2.5,1.1-2.5,2.5v2.5h1.6
		v-2.5c0-0.5,0.4-0.8,0.8-0.8h2.5v6.5h-2.5c-1.4,0-2.5,1.1-2.5,2.5v2.5h1.6v-2.5c0-0.5,0.4-0.8,0.8-0.8h2.5v1.6c0,1.7,0.3,3.4,1,4.9
		h-1.8c-1.4,0-2.5,1.1-2.5,2.5V50h1.6v-2.5c0-0.5,0.4-0.8,0.8-0.8h2.6c2.3,3.9,6.5,6.5,11.3,6.5s9.1-2.6,11.3-6.5h2.6
		c0.5,0,0.8,0.4,0.8,0.8V50h1.6v-2.5c0-1.4-1.1-2.5-2.5-2.5h-1.8c0.6-1.5,1-3.2,1-4.9v-1.6h2.5c0.5,0,0.8,0.4,0.8,0.8v2.5H50v-2.5
		c0-1.4-1.1-2.5-2.5-2.5h-2.5v-6.5h2.5c0.5,0,0.8,0.4,0.8,0.8v2.5H50z M44.3,12.4c0.9,0,1.6,0.7,1.6,1.6s-0.7,1.6-1.6,1.6
		s-1.6-0.7-1.6-1.6S43.4,12.4,44.3,12.4z M18.1,14c0-0.9,0.7-1.6,1.6-1.6c0.9,0,1.6,0.7,1.6,1.6s-0.7,1.6-1.6,1.6
		C18.8,15.6,18.1,14.9,18.1,14z M32,17.3c3.8,0,6.9,2.9,7.3,6.5H24.7C25.1,20.1,28.2,17.3,32,17.3z M21.4,25.5h21.3
		c0.5,0,0.8,0.4,0.8,0.8v0.8H20.5v-0.8C20.5,25.8,20.9,25.5,21.4,25.5z M20.5,40.2v-4.9h4.1v-1.6h-4.1V32h7.4v-1.6h-7.4v-1.6h10.6
		v22.9C25.2,51.2,20.5,46.2,20.5,40.2z M32.8,51.6V28.7h10.6v1.6h-7.4V32h7.4v1.6h-4.1v1.6h4.1v4.9C43.5,46.2,38.8,51.2,32.8,51.6z"
		/>
</g>
</svg>
